<svg class="animated" id="freepik_stories-muzzle" xmlns="http://www.w3.org/2000/svg" viewBox="0 0 500 500" version="1.1" xmlns:xlink="http://www.w3.org/1999/xlink" xmlns:svgjs="http://svgjs.com/svgjs"><style>svg#freepik_stories-muzzle:not(.animated) .animable {opacity: 0;}svg#freepik_stories-muzzle.animated #freepik--background-complete--inject-29 {animation: 0.7s 1 forwards cubic-bezier(.36,-0.01,.5,1.38) slideDown;animation-delay: 0s;}svg#freepik_stories-muzzle.animated #freepik--Dog--inject-29 {animation: 1.5s Infinite  linear heartbeat;animation-delay: 0s;}svg#freepik_stories-muzzle.animated #freepik--Muzzle--inject-29 {animation: 1.5s Infinite  linear shake;animation-delay: 0s;}            @keyframes slideDown {                0% {                    opacity: 0;                    transform: translateY(-30px);                }                100% {                    opacity: 1;                    transform: translateY(0);                }            }                    @keyframes heartbeat {                0% {                    transform: scale(1);                }                10% {                    transform: scale(1.1);                }                30% {                    transform: scale(1);                }                40% {                    transform: scale(1);                }                50% {                    transform: scale(1.1);                }                60% {                    transform: scale(1);                }                100% {                    transform: scale(1);                }            }                    @keyframes shake {                10%, 90% {                    transform: translate3d(-1px, 0, 0);                  }                  20%, 80% {                    transform: translate3d(2px, 0, 0);                  }                  30%, 50%, 70% {                    transform: translate3d(-4px, 0, 0);                  }                  40%, 60% {                    transform: translate3d(4px, 0, 0);                  }            }        </style><g id="freepik--background-complete--inject-29" class="animable animator-active" style="transform-origin: 247.025px 217.055px;"><path d="M343.63,58.25c.58-4.27-5.45-7.79-10-8.16-2.16-.17-4.41.16-6.46-.56-4.44-1.54-6.21-7.28-10.54-9.11-3.24-1.36-7-.15-10.11,1.43s-6.25,3.57-9.75,3.8c-3.06.19-6.37-.94-9,.55-2,1.11-3,3.41-4.86,4.76s-4.14,1.6-6.36,1.72-4.53.15-6.56,1.07-3.7,3.07-3.28,5.26Z" style="fill: rgb(245, 245, 245); transform-origin: 305.157px 49.4202px;" id="eluwy6879mrn" class="animable"></path><path d="M276.47,135.86c.65-4.71-6-8.6-11-9-2.39-.19-4.86.17-7.12-.61-4.9-1.71-6.86-8-11.64-10-3.57-1.51-7.68-.17-11.14,1.57s-6.89,3.94-10.76,4.19c-3.37.21-7-1-10,.61-2.2,1.23-3.35,3.75-5.37,5.25s-4.56,1.76-7,1.9-5,.16-7.23,1.18-4.08,3.39-3.62,5.8Z" style="fill: rgb(235, 235, 235); transform-origin: 234.017px 126.172px;" id="elaemu6rg1mkd" class="animable"></path><path d="M115.27,65.06c.6-4.38-5.57-8-10.21-8.35-2.21-.18-4.51.16-6.61-.57-4.54-1.58-6.36-7.45-10.79-9.32-3.31-1.4-7.13-.16-10.34,1.46s-6.39,3.65-10,3.88c-3.12.2-6.51-1-9.24.57-2,1.14-3.1,3.48-5,4.86s-4.23,1.64-6.5,1.77-4.64.14-6.71,1.09-3.79,3.15-3.36,5.39Z" style="fill: rgb(245, 245, 245); transform-origin: 75.8771px 56.0258px;" id="elv6kukcw33o9" class="animable"></path><g id="elxi6n7jkj59"><circle cx="427.6" cy="86.52" r="18.17" style="fill: rgb(235, 235, 235); transform-origin: 427.6px 86.52px; transform: rotate(-67.63deg);" class="animable"></circle></g><path d="M425,127.15c-.1,0-.19-3.36-.19-7.49s.09-7.5.19-7.5a72.47,72.47,0,0,1,.19,7.5A72.35,72.35,0,0,1,425,127.15Z" style="fill: rgb(224, 224, 224); transform-origin: 425.013px 119.655px;" id="elpkd8fka92y" class="animable"></path><path d="M414.54,107.93c.09.06-1.62,3.19-3.82,7s-4.05,6.85-4.14,6.8a79.57,79.57,0,0,1,3.81-7C412.59,110.93,414.45,107.88,414.54,107.93Z" style="fill: rgb(224, 224, 224); transform-origin: 410.562px 114.83px;" id="el9h9r2byzrab" class="animable"></path><path d="M403.79,101.24a38.07,38.07,0,0,1-4.24,3.62,41.4,41.4,0,0,1-4.48,3.32,40.74,40.74,0,0,1,4.24-3.62A43.1,43.1,0,0,1,403.79,101.24Z" style="fill: rgb(224, 224, 224); transform-origin: 399.43px 104.71px;" id="elrqvpbzaby3l" class="animable"></path><path d="M443.14,119.77a9.85,9.85,0,0,1-.48-1.85c-.26-1.14-.63-2.72-1.1-4.45s-.93-3.27-1.28-4.39a10.5,10.5,0,0,1-.51-1.84,8.57,8.57,0,0,1,.77,1.75c.41,1.1.93,2.65,1.39,4.39s.8,3.33,1,4.49A8.6,8.6,0,0,1,443.14,119.77Z" style="fill: rgb(224, 224, 224); transform-origin: 441.455px 113.505px;" id="elemj2tvhoogm" class="animable"></path><path d="M461.57,106.69a62.63,62.63,0,0,1-5.37-4.44,62.27,62.27,0,0,1-5.12-4.73,64.49,64.49,0,0,1,5.37,4.44A62.27,62.27,0,0,1,461.57,106.69Z" style="fill: rgb(224, 224, 224); transform-origin: 456.325px 102.105px;" id="elken5humj4z" class="animable"></path><path d="M468.63,88.72a17.23,17.23,0,0,1-2.19-.32c-1.35-.22-3.21-.51-5.28-.75s-3.94-.38-5.3-.46a16.66,16.66,0,0,1-2.21-.19,10.89,10.89,0,0,1,2.22-.08,51.64,51.64,0,0,1,5.34.35,53.16,53.16,0,0,1,5.28.87A10.64,10.64,0,0,1,468.63,88.72Z" style="fill: rgb(224, 224, 224); transform-origin: 461.14px 87.8081px;" id="eljuael50hgk" class="animable"></path><path d="M468.65,71c0,.11-3.91,1.15-8.78,2.34s-8.86,2.07-8.88,2,3.91-1.15,8.79-2.34S468.63,70.94,468.65,71Z" style="fill: rgb(224, 224, 224); transform-origin: 459.82px 73.1705px;" id="eloq5tijimoxo" class="animable"></path><path d="M448.12,50.45c.09.06-1.8,3.06-4.2,6.71s-4.44,6.55-4.53,6.49,1.8-3.06,4.21-6.7S448,50.39,448.12,50.45Z" style="fill: rgb(224, 224, 224); transform-origin: 443.755px 57.05px;" id="elqx1k01hgnsn" class="animable"></path><path d="M427.74,46.15a16.58,16.58,0,0,1,0,2.49c0,1.54,0,3.67,0,6s0,4.48.06,6a16,16,0,0,1,0,2.49,15.78,15.78,0,0,1-.25-2.48c-.09-1.54-.17-3.67-.17-6s.07-4.49.16-6A15.25,15.25,0,0,1,427.74,46.15Z" style="fill: rgb(224, 224, 224); transform-origin: 427.614px 54.64px;" id="el8ad8kd1v72" class="animable"></path><path d="M412.31,65.37c-.09,0-2-2.91-4.27-6.63a78.47,78.47,0,0,1-4-6.83c.09,0,2,2.91,4.27,6.63S412.4,65.31,412.31,65.37Z" style="fill: rgb(224, 224, 224); transform-origin: 408.177px 58.64px;" id="elna7nv4j4g" class="animable"></path><path d="M403.09,73.2a8.61,8.61,0,0,1-1.93-.3c-1.18-.25-2.8-.65-4.57-1.17s-3.34-1.07-4.47-1.5a8.63,8.63,0,0,1-1.79-.79,11.41,11.41,0,0,1,1.88.53c1.14.37,2.73.88,4.49,1.39s3.36,1,4.52,1.27A12.15,12.15,0,0,1,403.09,73.2Z" style="fill: rgb(224, 224, 224); transform-origin: 396.71px 71.32px;" id="elckj3141ph2m" class="animable"></path><path d="M399.06,87.16a89.19,89.19,0,0,1-11.63,1.12,46.26,46.26,0,0,1,5.8-.75A45.73,45.73,0,0,1,399.06,87.16Z" style="fill: rgb(224, 224, 224); transform-origin: 393.245px 87.72px;" id="elfw1thpjft67" class="animable"></path><polygon points="338.84 291.12 315.06 394.28 325.11 394.25 348.94 292.1 338.84 291.12" style="fill: rgb(224, 224, 224); transform-origin: 332px 342.7px;" id="elre30yycu69" class="animable"></polygon><polygon points="382.21 291.12 406.06 394.28 415.62 394.28 392.53 291.12 382.21 291.12" style="fill: rgb(224, 224, 224); transform-origin: 398.915px 342.7px;" id="elcg64aatif3f" class="animable"></polygon><polygon points="322.79 213.64 336.33 284.67 351.71 284.67 337.25 213.64 322.79 213.64" style="fill: rgb(224, 224, 224); transform-origin: 337.25px 249.155px;" id="eln79dru0fn7n" class="animable"></polygon><polygon points="87.02 291.12 67.63 394.28 77.5 394.28 97.76 291.12 87.02 291.12" style="fill: rgb(224, 224, 224); transform-origin: 82.695px 342.7px;" id="el42ep6nasrg8" class="animable"></polygon><polygon points="127.8 291.12 149.97 393.72 159.72 393.72 138.31 291.12 127.8 291.12" style="fill: rgb(224, 224, 224); transform-origin: 143.76px 342.42px;" id="el07m02jardm7v" class="animable"></polygon><polygon points="70.98 213.64 84.51 284.67 99.89 284.67 85.44 213.64 70.98 213.64" style="fill: rgb(224, 224, 224); transform-origin: 85.435px 249.155px;" id="elodcy767cy5" class="animable"></polygon><polygon points="40.52 207.19 43.29 220.1 352.17 220.1 348.56 207.19 40.52 207.19" style="fill: rgb(235, 235, 235); transform-origin: 196.345px 213.645px;" id="elesf3luz78e" class="animable"></polygon><polygon points="46.42 232.26 49.68 245.18 356.47 245.18 353.68 232.26 46.42 232.26" style="fill: rgb(235, 235, 235); transform-origin: 201.445px 238.72px;" id="elsv2onh5fn4n" class="animable"></polygon><polygon points="52.52 258.22 55.56 271.14 361.4 271.14 358.5 258.22 52.52 258.22" style="fill: rgb(235, 235, 235); transform-origin: 206.96px 264.68px;" id="elv208psm4p6d" class="animable"></polygon><rect x="75.9" y="284.67" width="329.8" height="12.91" style="fill: rgb(235, 235, 235); transform-origin: 240.8px 291.125px;" id="els28a8zfqcsn" class="animable"></rect><path d="M473.8,392.94c0,.14-101.54.26-226.76.26s-226.79-.12-226.79-.26,101.52-.27,226.79-.27S473.8,392.79,473.8,392.94Z" style="fill: rgb(224, 224, 224); transform-origin: 247.025px 392.935px;" id="eld6i997oyid" class="animable"></path></g><g id="freepik--Floor--inject-29" class="animable" style="transform-origin: 251.8px 437.005px;"><path d="M473.8,437c0,.15-99.42.27-222,.27s-222-.12-222-.27,99.39-.26,222.05-.26S473.8,436.81,473.8,437Z" style="fill: rgb(38, 50, 56); transform-origin: 251.8px 437.005px;" id="elkk2nsk7x8ro" class="animable"></path></g><g id="freepik--Plants--inject-29" class="animable" style="transform-origin: 245.295px 446.58px;"><path d="M33.12,419.69A16.77,16.77,0,0,1,35.23,422c1.23,1.48,2.88,3.58,4.59,6S43,432.61,44,434.26A16.22,16.22,0,0,1,45.46,437a20.47,20.47,0,0,1-1.8-2.54c-1.08-1.59-2.57-3.79-4.27-6.18s-3.29-4.51-4.45-6A21.2,21.2,0,0,1,33.12,419.69Z" style="fill: rgb(38, 50, 56); transform-origin: 39.29px 428.345px;" id="elyc0zkznkkl" class="animable"></path><path d="M49,415.74a29.47,29.47,0,0,1-.66,3.07,39.38,39.38,0,0,0-.85,7.49,39.88,39.88,0,0,0,.6,7.51c.34,1.9.65,3.06.57,3.09s-.15-.27-.32-.79-.39-1.28-.61-2.23A32.51,32.51,0,0,1,48,418.73a21.42,21.42,0,0,1,.68-2.21A3.07,3.07,0,0,1,49,415.74Z" style="fill: rgb(38, 50, 56); transform-origin: 47.9824px 426.321px;" id="elkcm8hb43dlr" class="animable"></path><path d="M61,419.89c.05.06-.75.8-1.9,2.11a26.93,26.93,0,0,0-6,12c-.37,1.71-.47,2.79-.56,2.78a2.57,2.57,0,0,1,0-.77,16.2,16.2,0,0,1,.22-2.08,23.52,23.52,0,0,1,2.15-6.56,23,23,0,0,1,4-5.65,15.69,15.69,0,0,1,1.53-1.43C60.72,420,60.94,419.86,61,419.89Z" style="fill: rgb(38, 50, 56); transform-origin: 56.7566px 428.333px;" id="ele5k91iobfjw" class="animable"></path><path d="M325,480.07a22.53,22.53,0,0,1-.78-2.46,33.65,33.65,0,0,0-2.41-5.69,34,34,0,0,0-3.44-5.13,23.52,23.52,0,0,1-1.63-2,9.58,9.58,0,0,1,1.91,1.76,26.18,26.18,0,0,1,5.92,11A9,9,0,0,1,325,480.07Z" style="fill: rgb(38, 50, 56); transform-origin: 320.87px 472.43px;" id="el4cidk4xtoj8" class="animable"></path><path d="M330.66,479.79a17.88,17.88,0,0,1-1.07-2.7c-.65-1.85-1.45-4.1-2.34-6.59s-1.71-4.74-2.37-6.58a16,16,0,0,1-.89-2.77,16.24,16.24,0,0,1,1.23,2.63c.7,1.66,1.6,4,2.52,6.54s1.69,4.93,2.2,6.65A14.74,14.74,0,0,1,330.66,479.79Z" style="fill: rgb(38, 50, 56); transform-origin: 327.325px 470.47px;" id="el1k7uv4873cr" class="animable"></path><path d="M336.75,459.93c.08,0-.45,1.09-1.09,2.87a29,29,0,0,0-1.35,14.49c.3,1.86.63,3,.54,3a2.93,2.93,0,0,1-.32-.77,18.25,18.25,0,0,1-.58-2.18,25.41,25.41,0,0,1-.41-7.45,25.85,25.85,0,0,1,1.77-7.24,17.43,17.43,0,0,1,1-2A2.88,2.88,0,0,1,336.75,459.93Z" style="fill: rgb(38, 50, 56); transform-origin: 335.095px 470.11px;" id="el8a04u58mp9t" class="animable"></path><path d="M104.92,478.55a22.53,22.53,0,0,1-.78-2.46,33.65,33.65,0,0,0-2.41-5.69,32.62,32.62,0,0,0-3.44-5.12,19.3,19.3,0,0,1-1.62-2,9.62,9.62,0,0,1,1.9,1.77A26.22,26.22,0,0,1,104.49,476,9,9,0,0,1,104.92,478.55Z" style="fill: rgb(38, 50, 56); transform-origin: 100.795px 470.915px;" id="el68xumhqb6zc" class="animable"></path><path d="M110.54,478.27a16.81,16.81,0,0,1-1.06-2.7c-.66-1.85-1.46-4.1-2.34-6.59s-1.71-4.74-2.38-6.58a17.13,17.13,0,0,1-.89-2.77,16.24,16.24,0,0,1,1.23,2.63c.7,1.66,1.6,4,2.53,6.54s1.68,4.94,2.2,6.65A15.09,15.09,0,0,1,110.54,478.27Z" style="fill: rgb(38, 50, 56); transform-origin: 107.205px 468.95px;" id="elnxxv2jnjkmf" class="animable"></path><path d="M116.63,458.41c.08,0-.45,1.1-1.09,2.87a29,29,0,0,0-1.35,14.49c.3,1.86.63,3,.55,3s-.15-.26-.33-.77a18.25,18.25,0,0,1-.58-2.18,25.76,25.76,0,0,1-.41-7.45,25.48,25.48,0,0,1,1.78-7.24,18.54,18.54,0,0,1,1-2A2.88,2.88,0,0,1,116.63,458.41Z" style="fill: rgb(38, 50, 56); transform-origin: 114.976px 468.59px;" id="el3h07uk2ip4j" class="animable"></path><path d="M432.22,417.45c.09,0,.38,1.15,1.23,2.88s2.31,4,3.79,6.58a39.67,39.67,0,0,1,3,7A13.78,13.78,0,0,1,441,437c-.07,0-.42-1.13-1.1-2.95a49.26,49.26,0,0,0-3.15-6.87,75.6,75.6,0,0,1-3.66-6.68,13.51,13.51,0,0,1-.76-2.2A2.64,2.64,0,0,1,432.22,417.45Z" style="fill: rgb(38, 50, 56); transform-origin: 436.609px 427.225px;" id="elhp9c283ex5h" class="animable"></path><path d="M444.56,412.87a34.62,34.62,0,0,1-.19,3.5,79.39,79.39,0,0,0-.11,8.42,80.64,80.64,0,0,0,.82,8.39,32,32,0,0,1,.49,3.47,3.68,3.68,0,0,1-.29-.9c-.16-.59-.36-1.44-.57-2.51a58.84,58.84,0,0,1-1-8.43,57.11,57.11,0,0,1,.26-8.47c.11-1.08.24-1.95.35-2.55A3.38,3.38,0,0,1,444.56,412.87Z" style="fill: rgb(38, 50, 56); transform-origin: 444.613px 424.76px;" id="eltp413dnyke" class="animable"></path><path d="M457.47,418.37a24.68,24.68,0,0,1-1.14,2.47,37.14,37.14,0,0,0-2.22,6.14,38.4,38.4,0,0,0-1.11,6.43,24.59,24.59,0,0,1-.23,2.72,10.4,10.4,0,0,1-.13-2.74,29.33,29.33,0,0,1,1-6.55,29.65,29.65,0,0,1,2.4-6.16A9.74,9.74,0,0,1,457.47,418.37Z" style="fill: rgb(38, 50, 56); transform-origin: 455.036px 427.25px;" id="el9zvntu36rkc" class="animable"></path></g><g id="freepik--Birds--inject-29" class="animable" style="transform-origin: 208.585px 65.34px;"><path d="M245.08,75.54s-.57-.16-1.6-.37a12.79,12.79,0,0,0-4.42-.13,12,12,0,0,0-5.92,2.58A12.35,12.35,0,0,0,229,84.27v.07l-.23.87-.33-.83a13.32,13.32,0,0,0-5-6,12.86,12.86,0,0,0-6.11-2.07,14,14,0,0,0-4.4.36c-1,.25-1.56.47-1.58.42a1.41,1.41,0,0,1,.37-.21,9.81,9.81,0,0,1,1.15-.43,13.1,13.1,0,0,1,10.87,1.47,13.6,13.6,0,0,1,5.25,6.29l-.56,0,0-.08a12.7,12.7,0,0,1,4.41-6.93,12.33,12.33,0,0,1,10.73-2.26,7.65,7.65,0,0,1,1.17.4C245,75.45,245.09,75.52,245.08,75.54Z" style="fill: rgb(38, 50, 56); transform-origin: 228.215px 79.8784px;" id="elk2e15p9rtac" class="animable"></path><path d="M199.59,45.47s-.55.63-1.55,1.76a37.79,37.79,0,0,0-9.42,25v.25l-.59,0a32.71,32.71,0,0,0-3.64-10.79A33.79,33.79,0,0,0,174,50.21c-1.22-.85-1.93-1.28-1.91-1.32a2.12,2.12,0,0,1,.55.26c.34.2.87.45,1.49.87a29.74,29.74,0,0,1,5,4,32.77,32.77,0,0,1,9.47,18.49l-.58,0v-.25a36.63,36.63,0,0,1,5.87-20.15,33.88,33.88,0,0,1,4-5c.51-.56,1-.94,1.25-1.21A2.46,2.46,0,0,1,199.59,45.47Z" style="fill: rgb(38, 50, 56); transform-origin: 185.84px 58.99px;" id="el4wqf4cj0vd5" class="animable"></path></g><g id="freepik--Dog--inject-29" class="animable" style="transform-origin: 248.042px 271.447px;"><path d="M140.15,437.05s-39.3,1.25-39.3.37c.68-4.85,2.12-9.82,5.47-13.39s11.08-5.75,17.58-3.1c7-5.31,9.82-16.05,14.33-34.23,0,0,1.47-14.51,3.29-24.5s-7.12-32.44-7.12-32.44l37.08,5.81s-15.74,72-18.46,77.48S140.15,437.05,140.15,437.05Z" style="fill: rgb(174, 116, 97); transform-origin: 136.165px 383.747px;" id="elh414u5xogmu" class="animable"></path><path d="M118.08,424c0,.09-1.26.11-3.2.6a16.64,16.64,0,0,0-11.41,9.83c-.77,1.85-1,3.1-1.06,3.08a2.27,2.27,0,0,1,.08-.88,13.27,13.27,0,0,1,.64-2.34,15.89,15.89,0,0,1,11.66-10.05,14.17,14.17,0,0,1,2.41-.29A2.77,2.77,0,0,1,118.08,424Z" style="fill: rgb(38, 50, 56); transform-origin: 110.239px 430.723px;" id="elba74k5ueko6" class="animable"></path><path d="M130.27,426.9c0,.09-1.25.05-3.25.22a20.17,20.17,0,0,0-7.48,2,13.09,13.09,0,0,0-5.5,5.29,19.67,19.67,0,0,0-1.18,3,2.36,2.36,0,0,1,.07-.88,8.93,8.93,0,0,1,.78-2.29,12.72,12.72,0,0,1,5.59-5.59,18.59,18.59,0,0,1,7.7-1.91,19.75,19.75,0,0,1,2.4,0A2.83,2.83,0,0,1,130.27,426.9Z" style="fill: rgb(38, 50, 56); transform-origin: 121.558px 432.057px;" id="elldbtl3yieqj" class="animable"></path><path d="M440.4,342.07a9.91,9.91,0,0,1,5.33,5.65,17.47,17.47,0,0,1,.95,7.86c-.41,5.14-3.15,10.4-6.15,14.6-4.43-3.62-5.64-10.15-6-13.5-.64-5.29,1.41-15.25,5.91-14.61" style="fill: rgb(245, 245, 245); transform-origin: 440.599px 356.11px;" id="ell02edbpxpkm" class="animable"></path><path d="M445.82,378.46a8.5,8.5,0,0,1,2.47-8.14,11.25,11.25,0,0,1,8.2-2.86,4.73,4.73,0,0,1,3.69,1.51,3.62,3.62,0,0,1,.18,3.67,7.33,7.33,0,0,1-2.63,2.76c-3.65,2.47-7.64,4.18-11.91,3.06" style="fill: rgb(245, 245, 245); transform-origin: 453.186px 373.125px;" id="el2wz023eznj9" class="animable"></path><path d="M441.12,390.46a15.92,15.92,0,0,1,.47-3.37,15.37,15.37,0,0,1,1.18-3.53,34.05,34.05,0,0,1,2.09-4,16.88,16.88,0,0,1,5.86-5.78,11.72,11.72,0,0,1,2.3-1,2.59,2.59,0,0,1,.91-.18c0,.1-1.24.43-3,1.52a18.14,18.14,0,0,0-5.58,5.74,40.42,40.42,0,0,0-2.1,3.95,18.4,18.4,0,0,0-1.27,3.4A26.55,26.55,0,0,1,441.12,390.46Z" style="fill: rgb(224, 224, 224); transform-origin: 447.525px 381.53px;" id="elt86xa3k6nhr" class="animable"></path><path d="M439.5,349.79a9.93,9.93,0,0,1,.23,1.71c.11,1.1.25,2.7.4,4.68.3,3.95.66,9.41.91,15.45s.31,11.52.27,15.48c0,2,0,3.59-.09,4.7a10,10,0,0,1-.12,1.72,9.14,9.14,0,0,1-.1-1.72c0-1.22-.06-2.79-.09-4.69-.07-4-.21-9.43-.45-15.47s-.55-11.39-.74-15.45c-.09-1.9-.16-3.47-.21-4.68A10.49,10.49,0,0,1,439.5,349.79Z" style="fill: rgb(224, 224, 224); transform-origin: 440.395px 371.66px;" id="elo49f91eyurh" class="animable"></path><path d="M439.39,380.64a19.83,19.83,0,0,0-13.13-12.46c-1.54-.43-3.47-.55-4.45.7s-.4,3.12.43,4.49a16.91,16.91,0,0,0,17.12,7.7" style="fill: rgb(245, 245, 245); transform-origin: 430.343px 374.591px;" id="elvwgatx8csv" class="animable"></path><path d="M428,372.51s.32.06.87.27,1.31.55,2.25,1a22.33,22.33,0,0,1,6.6,4.78,13.86,13.86,0,0,1,2.45,3.8,13.26,13.26,0,0,1,.94,3.57,13,13,0,0,1,.08,2.48,2.67,2.67,0,0,1-.11.9c-.12,0,0-1.3-.37-3.32a13.81,13.81,0,0,0-3.42-7.05,25.14,25.14,0,0,0-6.36-4.79A27.09,27.09,0,0,1,428,372.51Z" style="fill: rgb(224, 224, 224); transform-origin: 434.608px 380.91px;" id="el7dckrldvy0k" class="animable"></path><path d="M149.4,132.84s22.28,25.68,29.75,39.84l15.07,8.3-8.35,2.46,18.45,9.48-13.39.44,6.1,6.81,7.93,7.38q33.38,30.42,69.12,58.09l-3.38-.38a296.15,296.15,0,0,1,64.49,110.46c3.61,11.23,6.62,22.88,13,32.79s14.6,18,26.4,17.59l2.64,2,1.15,18.73-129.33-3.38s-33.66-26.65-43.68-55.5c-5.77-16.61-22.06-21.5-32.43-25.53a39.45,39.45,0,0,1-20.83-18.73c-4.21-8.21-5.9-9.45-9.69-12.1A101.09,101.09,0,0,1,111.28,297c-2.21-3.92-4.49-8.47-3-12.73l-2.67,3.66a20.05,20.05,0,0,1-.24-10.26l-3.3,2.25,1.08-8.67c.29-2.24,1.37-5.62.68-7.77-.78-2.47-4.13-5.13-5.89-6.9,0,0-2.84-3.37-4.79-11.79,0,0-1.18,6.31-1.18,5.74s-2.49-2.68-2.3-10.72,2.14-23.6,6.32-35.23,6-18.6,6-18.6" style="fill: rgb(38, 50, 56); transform-origin: 234.02px 289.835px;" id="el7fxtfj5e6a9" class="animable"></path><path d="M135.26,285.49a48.69,48.69,0,0,1-6.41,12.43,96.21,96.21,0,0,1-12.64-28.2c-3.54,5-4.68,11.48-4.13,17.61s2.67,12,5.19,17.62c6.74,15,15.59,30.92,35.18,41.45l-5.85-14.83A64.31,64.31,0,0,1,135.26,285.49Z" style="fill: rgb(174, 116, 97); transform-origin: 132.199px 308.06px;" id="eluqubvg3het" class="animable"></path><path d="M174.5,188.63a2.07,2.07,0,0,1,.07.35c0,.26.09.61.16,1,.13.95.32,2.29.56,4,.47,3.53,1.15,8.61,2,14.94l0,.34-.3-.16a29.59,29.59,0,0,1-11.57-11.39l.42-.13a43.85,43.85,0,0,1-7.24,27.87l-.49.73,0-.88A49,49,0,0,0,157,213.62c-.16-.77-.36-1.53-.56-2.28l.51,0a37.06,37.06,0,0,1-13.86,23.28l-.38.29v-.48c-.08-5.14-.15-10-.22-14.49l.35.16a125.4,125.4,0,0,0-16.39,18c-1.75,2.34-3,4.22-3.92,5.51l-1,1.48c-.23.33-.36.49-.36.49l.3-.53.94-1.51c.85-1.31,2.11-3.22,3.84-5.59a121.21,121.21,0,0,1,16.3-18.13l.35-.32v.47c.09,4.5.19,9.35.28,14.49l-.38-.18a36.78,36.78,0,0,0,13.64-23l.19-1.21.32,1.18c.2.76.39,1.53.56,2.3a49.57,49.57,0,0,1,1.16,11.87l-.47-.15a43.61,43.61,0,0,0,7.23-27.54l-.08-1,.49.88a29.21,29.21,0,0,0,11.35,11.3l-.26.17c-.78-6.33-1.4-11.42-1.83-15-.2-1.74-.36-3.09-.47-4,0-.44-.08-.79-.11-1A2,2,0,0,1,174.5,188.63Z" style="fill: rgb(69, 90, 100); transform-origin: 149.23px 217.105px;" id="eli8xq5ewdtbg" class="animable"></path><g id="el9q7nc7jteiq"><g style="opacity: 0.3; transform-origin: 152.234px 219.185px;" class="animable"><path d="M124.54,240.5l12.59-12a119,119,0,0,1-2.24,15.83,64.63,64.63,0,0,0,18.6-19,26.46,26.46,0,0,1-.55,9.79,41.73,41.73,0,0,0,15.64-24.2,61.33,61.33,0,0,0,5.2,11.89,28,28,0,0,0,.31-10.45,19.38,19.38,0,0,1,4.79,4.42,29.57,29.57,0,0,0-3-22.74s1.24,10.79,1.71,15.61a33.87,33.87,0,0,1-12.19-11.8c2.28,9.28-1.52,21.35-7,27.56-.67-4.22-1.68-12.19-1.57-12.64a44.74,44.74,0,0,1-14,22.52c0-4.73-.6-9.83-.64-14.57l-11.23,11.88" id="elmmhvnfquumd" class="animable" style="transform-origin: 152.234px 219.185px;"></path></g></g><g id="elxojo7z9bv6j"><g style="opacity: 0.3; transform-origin: 197.376px 278.981px;" class="animable"><path d="M166.57,277.1s-.43,13.79,2.81,17.68,7.72-10.38,7.72-10.38,1.58,13.19,5.91,9.3,8.65-16.6,8.65-16.6,9.3,16.24,12.54,9.18,0-20.48,0-20.48l24,12.9a68.23,68.23,0,0,0-29.09-16.19,35.12,35.12,0,0,1,3.69,20.56A67.11,67.11,0,0,1,190,270.42a26,26,0,0,1-6.84,19.24l-6.12-13.86-6.41,15.89A25.34,25.34,0,0,1,167.42,278" id="eltkfjtztnuw9" class="animable" style="transform-origin: 197.376px 278.981px;"></path></g></g><path d="M228.18,278.7a5.79,5.79,0,0,1-.47-.39l-1.36-1.18c-1.2-1-3-2.48-5.39-4.17A68.79,68.79,0,0,0,199,262.73l.26-.32A35.39,35.39,0,0,1,203,283.1l-.05.43-.35-.26a66.91,66.91,0,0,1-11.15-10.61c-.58-.69-1.13-1.39-1.67-2.09l.46-.17a26.25,26.25,0,0,1-6.92,19.43l-.25.27-.15-.34-6.1-13.87h.4c-2.49,6.12-4.68,11.49-6.47,15.87l-.12.3-.16-.28a25.42,25.42,0,0,1-3.08-10,18.85,18.85,0,0,1,0-3.75,1,1,0,0,1,0,.25v.71c0,.63,0,1.57.16,2.78a25.67,25.67,0,0,0,3.19,9.89l-.29,0c1.76-4.39,3.91-9.77,6.36-15.91l.19-.48.21.47c1.89,4.27,3.95,8.91,6.15,13.85l-.41-.07a25.81,25.81,0,0,0,6.76-19.06l-.05-.85.52.68c.54.69,1.09,1.39,1.66,2.07a67,67,0,0,0,11.05,10.53l-.4.17a35,35,0,0,0-3.64-20.41l-.23-.45.49.13a68.09,68.09,0,0,1,22,10.45A52.88,52.88,0,0,1,228.18,278.7Z" style="fill: rgb(69, 90, 100); transform-origin: 197.738px 277.13px;" id="elrsngob02f9j" class="animable"></path><path d="M285.28,336.49a2.18,2.18,0,0,1-.42-.24l-1.17-.74c-1-.67-2.49-1.67-4.32-3a130.32,130.32,0,0,1-14.22-12.07l.35-.3a32.84,32.84,0,0,1,2.76,4.26q.63,1.16,1.17,2.4c.18.41.36.83.53,1.26a4.73,4.73,0,0,1,.36,1.39,1.57,1.57,0,0,1-.55,1.47,1.64,1.64,0,0,1-1.59.06,7.8,7.8,0,0,1-1.27-.73l-1.21-.79c-1.6-1.09-3.18-2.26-4.72-3.54a62.31,62.31,0,0,1-8.94-9.11l.44-.24c1.66,5.21,3.2,10,4.56,14.27l.19.62-.52-.38a66.85,66.85,0,0,1-10.84-9.71c-1.17-1.29-2-2.35-2.6-3.08l-.64-.85a2,2,0,0,1-.2-.3s.1.08.25.26l.69.81c.6.7,1.49,1.73,2.67,3A71.91,71.91,0,0,0,257,330.74l-.33.23c-1.37-4.24-2.94-9-4.63-14.24l-.42-1.31.86,1.07a61.31,61.31,0,0,0,8.87,9c1.53,1.27,3.1,2.43,4.68,3.51l1.2.79a8,8,0,0,0,1.18.69,1.12,1.12,0,0,0,1.1,0,1.06,1.06,0,0,0,.35-1A10,10,0,0,0,269,327c-.36-.81-.74-1.6-1.15-2.36a32.63,32.63,0,0,0-2.7-4.21l.35-.31a138.49,138.49,0,0,0,14,12.18c1.8,1.36,3.25,2.39,4.24,3.1l1.13.8A3,3,0,0,1,285.28,336.49Z" style="fill: rgb(69, 90, 100); transform-origin: 263.855px 325.955px;" id="elt8pxyksxnma" class="animable"></path><path d="M142.55,325.14s24.59,39.87,33,35.72c13.81-6.78,14.11-26.94,14.11-26.94l6.94-32.11c3.86,12.24-4,15.17,1.39,24.88s11.58,19.77,11.09,30.83l-6.64-5.7a60.42,60.42,0,0,1,1.29,42l-4.68-9.42q-.88,6.45-1.78,12.89c-.22,1.61-.81,3.62-2.43,3.83s-2.59-1.37-3.3-2.72q-2.82-5.44-5.66-10.87a107.54,107.54,0,0,1-4.13,30q-1.44-3.19-2.9-6.39A91.54,91.54,0,0,1,166.17,443L160,454.75H119.24s-1-13.54,15.94-15.59h9.76L155.6,416s2.29-26.82,2.42-33.84.22-19.53-2.2-28-13.27-29-13.27-29" style="fill: rgb(174, 116, 97); transform-origin: 164.168px 378.28px;" id="elyv089ym1nxk" class="animable"></path><path d="M149.15,442.38c0,.09-1.33.09-3.43.46a24.54,24.54,0,0,0-7.76,2.8,18.87,18.87,0,0,0-3.68,2.64,7.13,7.13,0,0,0-2,3,5.15,5.15,0,0,0-.14,2.44c.12.57.27.87.23.89a1.81,1.81,0,0,1-.43-.84,4.83,4.83,0,0,1,0-2.59,7.08,7.08,0,0,1,2-3.28,18.65,18.65,0,0,1,3.76-2.76,22.24,22.24,0,0,1,8-2.7,19.94,19.94,0,0,1,2.55-.18A2.78,2.78,0,0,1,149.15,442.38Z" style="fill: rgb(38, 50, 56); transform-origin: 140.457px 448.434px;" id="el6kiexljgzxv" class="animable"></path><path d="M156.51,356.57a7.85,7.85,0,0,1-.94-.83,32.44,32.44,0,0,1-2.37-2.56,107.18,107.18,0,0,1-6.87-9.82l.45-.21c.55,1.69,1.15,3.49,1.76,5.35l.41,1.25-.85-1-.45-.53c-4.14-4.83-7.87-9.22-10.54-12.42L134,332l-.84-1.05c-.19-.25-.28-.38-.26-.39a1.83,1.83,0,0,1,.34.32l.91,1,3.28,3.69c2.74,3.14,6.51,7.49,10.65,12.32l.45.53-.44.25-1.75-5.37-.59-1.82,1,1.61c2.63,4.06,4.83,7.59,6.7,9.89.91,1.16,1.69,2,2.24,2.64A6.05,6.05,0,0,1,156.51,356.57Z" style="fill: rgb(38, 50, 56); transform-origin: 144.704px 343.565px;" id="elvo3tki6p0z" class="animable"></path><path d="M119.24,454.75s0-.21,0-.62a12.57,12.57,0,0,1,.17-1.8,14.45,14.45,0,0,1,2.51-6.41,13.76,13.76,0,0,1,3.58-3.45,20.29,20.29,0,0,1,5.35-2.47A36.24,36.24,0,0,1,145,439l-.22.12,10.63-23.16,0,.09c.45-7.24.94-15.06,1.44-23.15.36-5.72.71-11.31,1.06-16.7a73.08,73.08,0,0,0,.24-7.92,48.46,48.46,0,0,0-.85-7.53c-2.05-9.7-5.81-17.9-9.06-24.64s-6-12.17-7.75-16c-.85-1.91-1.51-3.41-1.93-4.43-.2-.5-.36-.88-.47-1.17a2.17,2.17,0,0,1-.15-.4,2.5,2.5,0,0,1,.2.38l.52,1.15c.45,1,1.13,2.48,2,4.39,1.77,3.8,4.55,9.2,7.89,15.93s7.11,14.93,9.2,24.71a49.35,49.35,0,0,1,.88,7.6,71.23,71.23,0,0,1-.24,8c-.33,5.4-.68,11-1,16.7-.51,8.09-1,15.92-1.47,23.15v.05l0,0-10.69,23.12-.07.14h-.15a36,36,0,0,0-13.95,1,16.23,16.23,0,0,0-8.84,5.73,14.82,14.82,0,0,0-2.58,6.29c-.16.77-.17,1.38-.23,1.78S119.24,454.75,119.24,454.75Z" style="fill: rgb(38, 50, 56); transform-origin: 138.947px 384.43px;" id="eld248hzbtmct" class="animable"></path><path d="M46.47,148.69a10.67,10.67,0,0,1,5.7,3.36,3.9,3.9,0,0,1,.95,1.63,1.78,1.78,0,0,1-.45,1.75c-.7.62-1.77.39-2.69.21s-2.1-.15-2.5.69.31,1.81,1.1,2.3a6.39,6.39,0,0,1,2.27,1.58,2.66,2.66,0,0,1-1,3.48,5.64,5.64,0,0,1-3.86.68,12.76,12.76,0,0,1-4.81-1.79s-5-2.82-3.19-8.35S46.47,148.69,46.47,148.69Z" style="fill: rgb(69, 90, 100); transform-origin: 45.3924px 156.576px;" id="eluqmu2v6t8f" class="animable"></path><path d="M124,108.74s0-.23-.12-.66a48.85,48.85,0,0,0-3.34-10.53c-2.62-5.81-3.32-10.23-3-12.72,0,0-1-1-2.07.83s-3.46,6.1-3,11,.69,13.33.69,13.33a3.92,3.92,0,0,0-3.18,3.73c-.28,3.32,1.66,3,1.66,3l9.26,6.5,4.56-8.3Z" style="fill: rgb(38, 50, 56); transform-origin: 117.706px 103.889px;" id="elcz3qy6sd5bk" class="animable"></path><path d="M87.16,128.15c-.37.48-3.43,10.28-3.86,10.44-5.24,2-41,8.2-43.56,11.54s-3.64,6.83-1.36,10A91.27,91.27,0,0,0,52.8,174.87c5.46,4.25,9.58,2.58,9.58,2.58s.58,5.77,5.29,6.07S102,186,102,186a41.58,41.58,0,0,1-1.82,7c-1.22,3.19-2.55,12.1-6.83,24.28-4.54,12.91,34-20.79,34.3-21.25S146,145.73,146,144.82s3-11.69,3-11.69a26.87,26.87,0,0,0-2.28-13.51c-3.19-7-6.52-18.82-6.83-23.82s-.56-9.87-3-10.17-9.15,8.5-10.52,15.48a60.29,60.29,0,0,1-2.88,10.62s-11.69,1.06-17.15,4S89.91,124.62,87.16,128.15Z" style="fill: rgb(38, 50, 56); transform-origin: 93.1217px 152.923px;" id="elh8p0hfp0rqq" class="animable"></path><path d="M100.81,140.68c.92-.19,3.36.22,4.24-.12a1,1,0,0,0,.63-.48,1,1,0,0,0-.19-.83,24.54,24.54,0,0,0-5.58-6.68,11.41,11.41,0,0,0-3.61-2.21,5.69,5.69,0,0,0-4.16.07c-1.29.6-2.28,1.51-2.25,2.93V134a4.06,4.06,0,0,0,2,3s2.46-2,4.16-.81A42.55,42.55,0,0,1,100.81,140.68Z" style="fill: rgb(174, 116, 97); transform-origin: 97.7961px 135.35px;" id="elxifnfpv7mzr" class="animable"></path><path d="M144.32,181.12c1.51-10.69-4.56-21.9-14-26.88a6,6,0,0,0-5.16-.09c-4.19,1.86-9.86,3.06-13.76,2.6a3.1,3.1,0,0,0-2.25,5.54,20.7,20.7,0,0,0,7.46,3.69c3.8,1,8.68,1.48,9.43,5.77a6.42,6.42,0,0,1-.88,4.31,38.51,38.51,0,0,1-13.71,13.72,25.63,25.63,0,0,1-5,35.18,37.85,37.85,0,0,0,2.46-20.5l-3,8a17.78,17.78,0,0,0-5.61-16.66,104,104,0,0,0-2.48,50.9c4.66-7.11,11.42-12.54,18.17-17.71s13.69-10.3,18.89-17,8.51-15.43,6.83-23.77l-6.94,8a64.62,64.62,0,0,0,5.43-22.76Z" style="fill: rgb(174, 116, 97); transform-origin: 120.16px 200.155px;" id="els1fpzk21hlh" class="animable"></path><path d="M97,137.47a2.88,2.88,0,0,0-2.26-.76,2.15,2.15,0,0,0-1.43,1.58,6.41,6.41,0,0,0-.05,2.23l.61,5.36a6.55,6.55,0,0,0,3.79-.88,4.1,4.1,0,0,0,2-3.25C99.63,140,98.35,138.51,97,137.47Z" style="fill: rgb(255, 255, 255); transform-origin: 96.4228px 141.296px;" id="el8o9f9aa5ean" class="animable"></path><path d="M94.7,136.61h-.52a3,3,0,0,0-1.42,2.5,13,13,0,0,0,.48,5.92,1.3,1.3,0,0,0,1.32.89h0a1.25,1.25,0,0,0,.79-.35,6.18,6.18,0,0,0,1.37-4.25C96.74,139,95.87,137.08,94.7,136.61Z" style="fill: rgb(38, 50, 56); transform-origin: 94.6726px 141.266px;" id="els8lc0roqrxo" class="animable"></path><path d="M127,120.89a62.22,62.22,0,0,1,7.27-26.64c-.64,5.23,2.9,10,4.53,15,2,6.24,1.07,12.92.1,19.41-.37,2.55-.91,5.36-3.26,7.08a59.06,59.06,0,0,1-2.19-14.46c-.67-.56-1.6,2.68-1.87,5.58-.45-2-.35-5.32-.81-7.38-.61,0-2.4,2-2.51,2.48" style="fill: rgb(174, 116, 97); transform-origin: 133.492px 114.995px;" id="el4o166m8h0lh" class="animable"></path><path d="M121.56,110.5c0,.16-2.94.52-6.41,1.67s-6.07,2.6-6.15,2.46a6.08,6.08,0,0,1,1.63-1.08,26,26,0,0,1,4.36-1.88,27.14,27.14,0,0,1,4.61-1.07A6.4,6.4,0,0,1,121.56,110.5Z" style="fill: rgb(69, 90, 100); transform-origin: 115.28px 112.553px;" id="elq0sxeymphr" class="animable"></path><path d="M121.56,120.13a18.72,18.72,0,0,1,.53-3.28c.41-2,1.08-4.75,1.9-7.77s1.57-5.58,2.16-7.69a21,21,0,0,1,1-3.16,20,20,0,0,1-.63,3.25c-.47,2-1.19,4.73-2,7.74s-1.54,5.74-2,7.72A23.35,23.35,0,0,1,121.56,120.13Z" style="fill: rgb(69, 90, 100); transform-origin: 124.355px 109.18px;" id="ela24owsluaz" class="animable"></path><path d="M39.18,161c3,5.54,8.78,14.21,14,17.69,5.7,3.81,10.3,1.38,17.14,1s13.72-1.57,20.5-.56" style="fill: rgb(38, 50, 56); transform-origin: 65px 170.901px;" id="el9wfrykmysj6" class="animable"></path><path d="M90.82,179.06c0,.05-.85-.07-2.39-.17a54.49,54.49,0,0,0-6.51,0c-2.74.15-6,.5-9.64.8-1.83.14-3.72.25-5.67.56a53.1,53.1,0,0,1-6.12.73,13.33,13.33,0,0,1-3.16-.28,11.72,11.72,0,0,1-2.89-1,19,19,0,0,1-4.6-3.5,53.21,53.21,0,0,1-6.13-7.53c-1.56-2.27-2.7-4.2-3.45-5.55-.37-.68-.65-1.21-.83-1.57a3.35,3.35,0,0,1-.25-.57,2.32,2.32,0,0,1,.35.52c.23.39.53.9.91,1.52.8,1.31,2,3.2,3.58,5.44a54.79,54.79,0,0,0,6.16,7.4,18.63,18.63,0,0,0,4.49,3.38,11.31,11.31,0,0,0,2.77,1,13.29,13.29,0,0,0,3,.26,54,54,0,0,0,6.06-.72c2-.3,3.9-.4,5.7-.53,3.63-.27,6.9-.59,9.67-.69a47.3,47.3,0,0,1,6.54.14c.77.08,1.36.16,1.76.24A2.89,2.89,0,0,1,90.82,179.06Z" style="fill: rgb(69, 90, 100); transform-origin: 65px 170.983px;" id="elht4o21posxp" class="animable"></path><path d="M99.59,142.73c.06,0,0,.49-.45,1.12a6.15,6.15,0,0,1-2.28,1.82,5.13,5.13,0,0,1-2.93.32c-.76-.17-1.1-.54-1.06-.59s.43.17,1.12.23a5.22,5.22,0,0,0,1.22,0,4.41,4.41,0,0,0,1.42-.38,7.65,7.65,0,0,0,2.22-1.58C99.31,143.11,99.52,142.7,99.59,142.73Z" style="fill: rgb(69, 90, 100); transform-origin: 96.2381px 144.402px;" id="elnnfxho6r0vp" class="animable"></path><path d="M99.87,142.37c-.09,0-.26-1-1-2.36a8.65,8.65,0,0,0-1.72-2.13A4.25,4.25,0,0,0,95.8,137a2.08,2.08,0,0,0-1.55,0,2,2,0,0,0-1,1.18,6.14,6.14,0,0,0-.34,1.56,14.42,14.42,0,0,0,0,2.78c.14,1.58.44,2.54.35,2.57a6.87,6.87,0,0,1-.72-2.53,12.51,12.51,0,0,1-.08-2.86,6.3,6.3,0,0,1,.33-1.7A2.56,2.56,0,0,1,94,136.54a2.53,2.53,0,0,1,2,0,4.49,4.49,0,0,1,1.45,1,8.41,8.41,0,0,1,1.73,2.32,7.14,7.14,0,0,1,.64,1.82A1.75,1.75,0,0,1,99.87,142.37Z" style="fill: rgb(69, 90, 100); transform-origin: 96.1485px 140.712px;" id="el0cgqdwz597p8" class="animable"></path><path d="M127.62,147.28s-.17-.08-.46-.28-.68-.53-1.18-1a22.75,22.75,0,0,1-3.63-4.14l.39-.13a23,23,0,0,1-.48,7.31l-.13.59-.33-.5a19.08,19.08,0,0,1-1.52-2.75,18.44,18.44,0,0,1-1.26-3.9h.49a21.55,21.55,0,0,1-1,3.78,7.46,7.46,0,0,1-1.87,2.88l-.23.21-.1-.29a18,18,0,0,1-.88-4.79c0-.58,0-1,0-1.33a1.47,1.47,0,0,1,.06-.47s0,.64.17,1.78a20.18,20.18,0,0,0,1,4.68l-.32-.08a7.37,7.37,0,0,0,1.71-2.76,22.13,22.13,0,0,0,.91-3.71l.23-1.25.27,1.25a18.89,18.89,0,0,0,1.25,3.79,20.23,20.23,0,0,0,1.47,2.68l-.47.08a23.44,23.44,0,0,0,.56-7.17l-.07-.82.45.69a26.42,26.42,0,0,0,3.45,4.2C127.08,146.77,127.65,147.24,127.62,147.28Z" style="fill: rgb(69, 90, 100); transform-origin: 121.525px 145.285px;" id="el1kjpkzvuf3c" class="animable"></path><path d="M355.58,443.45c27.78,9.8,38.2,6,47-1.5a40.43,40.43,0,0,0,13.87-30.56,20.12,20.12,0,0,1-7.26,10.21c1.85-6.69-1.09-13.76-4.75-19.67s-8.17-11.48-10-18.19c-2.09-7.85-.1-16.41,4.15-23.35s10.54-12.38,17.31-16.88l-18.59-1.43,11.93-8.29a35.28,35.28,0,0,0-30.45,10.51l4.21-7c-14,2.34-25.82,13.4-30.37,26.85s-2.18,28.74,5,41A54.6,54.6,0,0,1,362,413c1.08,2.81,1.42,6.07.12,8.78s-4.6,4.56-7.43,3.55" style="fill: rgb(38, 50, 56); transform-origin: 383.378px 391.386px;" id="elwspq24utlzh" class="animable"></path><path d="M409.15,421.6c1.85-6.69-1.09-13.76-4.75-19.67s-8.17-11.48-10-18.19c-2.09-7.85-.1-16.41,4.15-23.35s10.54-12.38,17.31-16.88l-9.5-.73c-6.89,1.8-13.29,4.74-18.32,9.74C381.65,358.9,378.34,368,377.8,377s1.51,18.08,4.59,26.6c2.11,5.86,4.77,11.82,4.29,18s-4.27,12.07-9.15,16.14a53.39,53.39,0,0,1-14.5,8.08c22.29,6.62,31.58,2.89,39.51-3.93a40.43,40.43,0,0,0,13.87-30.56A20.12,20.12,0,0,1,409.15,421.6Z" style="fill: rgb(174, 116, 97); transform-origin: 389.72px 396.033px;" id="elk1tz7hs8zkn" class="animable"></path><path d="M289.88,373.41A54,54,0,0,0,260,357.8a45.61,45.61,0,0,0-32.7,7.35,39.58,39.58,0,0,0-16.76,28.71L216.7,387a26.09,26.09,0,0,0-.4,13.36l2.5-5.2s11.78,27,14.49,33.05c1.62,3.62,2.72,6.08,4.13,9.79.45,1.2,1.72,3.38,1.21,4.56s-1.92,1.81-3.21,2.15c-4.66,1.24-10.56-.05-14.93-2.09-3.83-1.79-7.58-4.84-11.74-4.08-2.91.53-5.2,2.92-6.4,5.62a27.85,27.85,0,0,0-1.79,8.65c-.14,1.46-.21,3.11.8,4.17s2.46,1.07,3.82,1.06c17.75,0,35.4-2.54,53.12-3.53,17.93-1,36.39-.51,53.22-6.8,2.64-1,5.71-3,5.21-5.74" style="fill: rgb(38, 50, 56); transform-origin: 258.632px 407.647px;" id="elum9gr9r3uk" class="animable"></path><path d="M316.73,442a3,3,0,0,1,.06.92,4,4,0,0,1-1.19,2.39,10.55,10.55,0,0,1-3.7,2.37c-1.64.6-3.52,1.29-5.7,1.91a96.91,96.91,0,0,1-16.13,3.18c-6.37.8-13.68,1.16-21.74,1.5-4,.17-8.25.34-12.65.63s-9,.67-13.68,1.09c-9.45.83-19.55,1.84-30.23,2.21-1.34,0-2.68.08-4,.09s-2.7.1-4.1,0a4.49,4.49,0,0,1-2-.7,3.13,3.13,0,0,1-1.2-1.84,13.32,13.32,0,0,1,0-4.23,21.85,21.85,0,0,1,2.09-8.24,10.78,10.78,0,0,1,2.8-3.36,7.71,7.71,0,0,1,4.09-1.66,9.85,9.85,0,0,1,4.39.76,34.22,34.22,0,0,1,4,2,29.89,29.89,0,0,0,8.17,3.33,20.23,20.23,0,0,0,8.86.33,8.16,8.16,0,0,0,2.09-.7,3,3,0,0,0,1.48-1.45,3.25,3.25,0,0,0-.26-2c-.26-.71-.59-1.39-.89-2.12-1.59-3.74-3.15-7.45-4.71-11.13l-4.76-10.87q-4.72-10.75-9.21-21H219c-.85,1.75-1.68,3.48-2.51,5.2l-.31.64-.16-.69a26.3,26.3,0,0,1,.42-13.49l.41.23L210.66,394l-.47.51.06-.69a38.86,38.86,0,0,1,7.95-20.25,40.32,40.32,0,0,1,15.46-12.33,45.88,45.88,0,0,1,17-4.09,47.32,47.32,0,0,1,14.86,1.68,53.93,53.93,0,0,1,18.74,9.52,52.43,52.43,0,0,1,4.22,3.67c.45.44.78.78,1,1l.34.35-.37-.33-1-1c-.93-.85-2.32-2.12-4.27-3.6a54,54,0,0,0-18.71-9.36,47.17,47.17,0,0,0-14.77-1.62,45.6,45.6,0,0,0-16.89,4.11,41.46,41.46,0,0,0-8.2,5,40.86,40.86,0,0,0-7.08,7.24,38.41,38.41,0,0,0-7.83,20l-.41-.18c2-2.24,4.1-4.53,6.21-6.85l.72-.79-.31,1a25.89,25.89,0,0,0-.39,13.24l-.47-.06c.83-1.72,1.66-3.45,2.51-5.2l.23-.49.22.5,9.22,21q2.35,5.39,4.77,10.87c1.58,3.67,3.13,7.41,4.71,11.15.29.69.63,1.39.9,2.13a3.66,3.66,0,0,1,.25,2.42,3.49,3.49,0,0,1-1.72,1.71,9,9,0,0,1-2.22.75,20.94,20.94,0,0,1-9.09-.33,30.52,30.52,0,0,1-8.3-3.39,33.17,33.17,0,0,0-3.92-1.94,9.38,9.38,0,0,0-4.16-.73,7.16,7.16,0,0,0-3.82,1.55,10.4,10.4,0,0,0-2.66,3.2,21.37,21.37,0,0,0-2.05,8.05,13.22,13.22,0,0,0-.07,4.06,2.73,2.73,0,0,0,1,1.56,4,4,0,0,0,1.81.61c1.32.14,2.7,0,4,.05s2.69-.06,4-.09c10.66-.36,20.76-1.35,30.21-2.16,4.73-.41,9.3-.78,13.7-1.06s8.62-.44,12.65-.6c8.07-.31,15.36-.65,21.72-1.41a97.54,97.54,0,0,0,16.12-3.1c2.17-.6,4.06-1.27,5.69-1.86a10.38,10.38,0,0,0,3.68-2.29,4,4,0,0,0,1.21-2.33A7,7,0,0,0,316.73,442Z" style="fill: rgb(69, 90, 100); transform-origin: 258.551px 407.718px;" id="eld4akkmtdp2e" class="animable"></path><path d="M275.62,423.31a3.09,3.09,0,0,1-.5-.33l-1.41-1c-1.22-.92-3-2.28-5.15-4.07a179.06,179.06,0,0,1-16.73-15.71l.41-.21c.95,4.52,2,9.48,3.09,14.66l.14.71-.56-.45c-1-.79-2-1.64-3-2.58a49.5,49.5,0,0,1-12-17.06l.46-.09c-.09,2.21-.18,4.32-.26,6.35,0,1-.09,2-.13,2.95a4.3,4.3,0,0,1-.68,2.8,1.82,1.82,0,0,1-1.32.59,2.69,2.69,0,0,1-1.35-.32,4.09,4.09,0,0,1-1.62-1.94c-.62-1.48-1.07-2.85-1.53-4.08l-2.1-5.77-.53-1.53a3.75,3.75,0,0,1-.17-.54,2.27,2.27,0,0,1,.24.51l.6,1.51,2.22,5.72c.49,1.21,1,2.61,1.59,4a3.64,3.64,0,0,0,1.48,1.76,1.83,1.83,0,0,0,2.2-.2,4.1,4.1,0,0,0,.55-2.55c0-1,.07-1.95.11-3,.07-2,.14-4.14.22-6.34l0-1.07.42,1a49.55,49.55,0,0,0,11.93,16.87c1,.92,2,1.77,3,2.55l-.41.26-3-14.67-.18-.85.59.63a194.73,194.73,0,0,0,16.57,15.82c2.14,1.81,3.87,3.21,5.06,4.16l1.35,1.09A4.27,4.27,0,0,1,275.62,423.31Z" style="fill: rgb(69, 90, 100); transform-origin: 253.15px 409.5px;" id="elam0nd9vbak" class="animable"></path><path d="M284.73,452.89c-12.68.85-65.48,5.92-80,5.36-2.51-.1-4.29-1.4-4.74-3.44a7,7,0,0,1-.2-2.41,40.22,40.22,0,0,1,1.37-7.24,13.21,13.21,0,0,1,3.88-6.17,8,8,0,0,1,6.87-1.85,14.43,14.43,0,0,1,4.45,2.31,32,32,0,0,0,10.79,4.93,15.42,15.42,0,0,0,11.49-1.73l2.65-4.11,2.56,7.36,10.21-3.52-3,6.14Z" style="fill: rgb(174, 116, 97); transform-origin: 242.246px 447.639px;" id="elceoksfim0iv" class="animable"></path><path d="M214.75,443.79a11,11,0,0,0-3-.08,8.62,8.62,0,0,0-3,1.12,10.29,10.29,0,0,0-2.88,2.7,18.35,18.35,0,0,0-2.82,6.68,27,27,0,0,1-.72,3,14,14,0,0,1,.36-3.06,17,17,0,0,1,2.77-6.91,10,10,0,0,1,3-2.8,8.14,8.14,0,0,1,3.22-1.07,6.37,6.37,0,0,1,2.27.14A2,2,0,0,1,214.75,443.79Z" style="fill: rgb(38, 50, 56); transform-origin: 208.54px 450.268px;" id="elmwqsagltjgp" class="animable"></path><path d="M221.36,448.83c0,.09-.94.05-2.38.34a11.94,11.94,0,0,0-8.62,6.87c-.6,1.35-.77,2.27-.86,2.25a6,6,0,0,1,.52-2.39,11.19,11.19,0,0,1,8.89-7.09A5.84,5.84,0,0,1,221.36,448.83Z" style="fill: rgb(38, 50, 56); transform-origin: 215.43px 453.49px;" id="elo6bq1jy615d" class="animable"></path><polygon points="115.53 158.05 118.1 163.65 90.77 157.36 87.79 151.44 115.53 158.05" style="fill: rgb(69, 90, 100); transform-origin: 102.945px 157.545px;" id="elq3sfge1p3fe" class="animable"></polygon><path d="M118.1,163.65c.05.32-23.69,20.57-23.69,20.57l.26-6.15,20.86-20Z" style="fill: rgb(69, 90, 100); transform-origin: 106.255px 171.145px;" id="elcu06kzku79u" class="animable"></path><path d="M155.2,138.4s.81,7.32-11.45,13-25.65,12.22-25.65,12.22l-2.57-5.6S141,149.2,146,144.82c6.72-5.94,3.42-12,3.42-12Z" style="fill: rgb(69, 90, 100); transform-origin: 135.371px 148.22px;" id="el5lzstc6u0ao" class="animable"></path><path d="M38.4,145.53a4.6,4.6,0,0,0-3.09,4.39,32.33,32.33,0,0,0,1.34,6.74A79.42,79.42,0,0,0,41,169a53.59,53.59,0,0,0,4.27,8.11,9.78,9.78,0,0,0,4.16,3.58c5.2,2.6,11.19,3.52,16.9,4.16a156.87,156.87,0,0,0,18.13.87c3.33,0,6.68-.07,10-.28a1.28,1.28,0,0,0,1.25-1.25,115.58,115.58,0,0,0-.06-16.54q-.31-4.06-.9-8.08c-.19-1.36-.42-2.73-.66-4.08a9.49,9.49,0,0,0-.91-3.24c-1.22-2-3.48-1.78-5.49-1.52a47.42,47.42,0,0,1-6.94.47c-4-.09-8.56-1.06-10.55-4.86a18.62,18.62,0,0,1-1.89-7.18A1.27,1.27,0,0,0,66.68,138L42,144.58l-3.55.95a1.25,1.25,0,0,0,.66,2.41l24.73-6.6,3.55-.94-1.58-1.21A23.28,23.28,0,0,0,67,145.37a13.43,13.43,0,0,0,2.3,4.26,11,11,0,0,0,4.77,3c4.31,1.56,9.08,1.2,13.54.63.89-.12,2.45-.57,3.18.12s.8,2.77,1,3.76c.47,2.77.85,5.55,1.11,8.35a116,116,0,0,1,.25,18.73L94.41,183a171.81,171.81,0,0,1-23.36-.15A72.45,72.45,0,0,1,54.32,180,25.56,25.56,0,0,1,51,178.75a14.56,14.56,0,0,1-2.6-1.49c.1.09-.32-.35-.42-.48a9.73,9.73,0,0,1-.64-.9c-.65-1-1.23-2-1.78-3a73.26,73.26,0,0,1-4.86-11.22c-.77-2.28-1.44-4.59-2-6.93-.31-1.29-.58-2.59-.8-3.9s-.17-2.37,1.11-2.89C40.53,147.34,39.89,144.92,38.4,145.53Z" style="fill: rgb(255, 114, 94); transform-origin: 65.6434px 161.838px;" id="elyf1gui988i" class="animable"></path><path d="M74.09,150.44l-13.78,2.85c-3.18.67-6.36,1.33-9.53,2a40,40,0,0,1-5.46.6l-6.74.48c-.8.05-.81,1.3,0,1.25l5.76-.41a45.82,45.82,0,0,0,5.5-.45c6.42-1.27,12.81-2.69,19.21-4l5.37-1.1c.79-.17.45-1.37-.33-1.21Z" style="fill: rgb(255, 114, 94); transform-origin: 56.423px 154.028px;" id="ellfkypai1s4" class="animable"></path><path d="M68.09,144.94l-12.62,3.19-7.13,1.81a15.64,15.64,0,0,1-3.18.53l-7.77.79c-.79.08-.8,1.33,0,1.25l6.79-.69a27.16,27.16,0,0,0,3.82-.5l15.3-3.88,5.12-1.3a.62.62,0,0,0-.33-1.2Z" style="fill: rgb(255, 114, 94); transform-origin: 52.8355px 148.716px;" id="elrbckxcrdlgm" class="animable"></path><path d="M40.52,163.84l8.4.09a57.05,57.05,0,0,0,9.73-1.08c9.22-1.45,18.4-3.12,27.57-4.84,2.19-.41,4.38-.82,6.56-1.25.79-.15.46-1.36-.33-1.2-5.77,1.12-11.55,2.18-17.34,3.22-4.9.88-9.8,1.74-14.71,2.53-3.45.56-7,1.42-10.52,1.38l-9.36-.1a.63.63,0,0,0,0,1.25Z" style="fill: rgb(255, 114, 94); transform-origin: 66.601px 159.738px;" id="el6cnr4qyh6s6" class="animable"></path><path d="M43.3,170c3.11.15,6.26.48,9.37.45,4.25,0,8.59-.67,12.82-1.1q6.75-.68,13.49-1.58,7.55-1,15.06-2.29c.79-.14.45-1.34-.34-1.21q-13.42,2.28-27,3.71c-4.51.46-9,.87-13.53,1.19a39,39,0,0,1-4.58-.17l-5.31-.25c-.81,0-.8,1.21,0,1.25Z" style="fill: rgb(255, 114, 94); transform-origin: 68.5827px 167.356px;" id="elbxz8nqcs98" class="animable"></path><path d="M45.89,175.55l7.52,1.16a55.07,55.07,0,0,0,9.78.11c8.33-.24,16.64-.81,24.94-1.49q2.93-.22,5.85-.5c.79-.07.8-1.32,0-1.25-5.17.48-10.34.87-15.51,1.22-4.45.3-8.91.55-13.36.71a83.3,83.3,0,0,1-10.83.07c-2.69-.26-5.38-.83-8.06-1.24-.79-.12-1.13,1.08-.33,1.21Z" style="fill: rgb(255, 114, 94); transform-origin: 70.0046px 175.282px;" id="elqt9mpqbr4s" class="animable"></path><path d="M38.59,148.2c2.53-1.75,5.37.34,6.69,2.58,1.56,2.64,2.37,5.81,3.34,8.7,1.08,3.2,2.09,6.43,2.94,9.7.28,1.09,2.72,9.54,1,9.65s-1.61,2.6,0,2.5c4.78-.31,2.8-6.75,2.17-9.6A126.09,126.09,0,0,0,51,158.81c-1.21-3.6-2.19-7.82-4.66-10.82-2.12-2.59-6.07-4-9-2-1.31.91-.06,3.07,1.27,2.16Z" style="fill: rgb(255, 114, 94); transform-origin: 46.2298px 163.188px;" id="elj25z2nybwnm" class="animable"></path><path d="M94.67,154.69a1.8,1.8,0,1,1-1.8-1.8A1.8,1.8,0,0,1,94.67,154.69Z" style="fill: rgb(224, 224, 224); transform-origin: 92.87px 154.69px;" id="el2spm8vduh4v" class="animable"></path><path d="M97,180.76a1.8,1.8,0,1,1-1.8-1.8A1.81,1.81,0,0,1,97,180.76Z" style="fill: rgb(224, 224, 224); transform-origin: 95.2px 180.76px;" id="elexehc1x2bp9" class="animable"></path><path d="M118,161.85a1.8,1.8,0,1,1-1.8-1.8A1.79,1.79,0,0,1,118,161.85Z" style="fill: rgb(224, 224, 224); transform-origin: 116.2px 161.85px;" id="el8qq6whh3h5v" class="animable"></path></g><g id="freepik--Muzzle--inject-29" class="animable" style="transform-origin: 379.453px 169.324px;"><path d="M364.68,178.81c.25-.08-3.09-23.84-4.91-34.94s-2.66-19.37-9.66-28.7c-7.44-9.92-10.67-10.23-10.67-10.23L332,105s10.85,8.57,13.79,13.36a43.81,43.81,0,0,1,6.86,18.59c1.39,9.68,6.21,43.79,6.21,43.79Z" style="fill: rgb(69, 90, 100); transform-origin: 348.347px 142.84px;" id="el6y8z2q3p4ic" class="animable"></path><polygon points="354.04 182.25 353.57 181.93 326.15 162.34 321.42 167.8 345.56 186.69 354.04 182.25" style="fill: rgb(69, 90, 100); transform-origin: 337.73px 174.515px;" id="ely0hzvv9hguh" class="animable"></polygon><path d="M344.12,200c-.18-.53-23.22-31.74-23.22-31.74l-6.48,3.06,29.7,39.36Z" style="fill: rgb(69, 90, 100); transform-origin: 329.27px 189.47px;" id="el46sqecuqlyd" class="animable"></path><path d="M442.9,179.56Z" style="fill: rgb(255, 114, 94); transform-origin: 442.9px 179.56px;" id="elie8sb2pvskp" class="animable"></path><path d="M427.49,229.19c1.83-7.18,4.12-14.23,6.3-21.31,2.13-6.92,4.89-14.18,4.43-21.53a37.79,37.79,0,0,0-.68-5.08,11.85,11.85,0,0,0-1.32-4.16c-1.41-2.18-3.76-3.7-5.86-5.14-5.15-3.53-9.94-7.51-15.09-11-6.46-4.44-13.12-8.56-19.57-13-2-1.37-3.87,1.87-1.89,3.24,5.46,3.76,11.08,7.29,16.59,11,2.78,1.86,5.53,3.75,8.22,5.74,2.37,1.75,4.6,3.7,7,5.39a58.25,58.25,0,0,1,6.15,4.45,5.67,5.67,0,0,1,1.48,1.83,21.64,21.64,0,0,1,1.08,5.41c.75,6.94-1.64,13.56-3.63,20.11-2.34,7.69-4.86,15.32-6.85,23.12-.6,2.34,3,3.33,3.62,1Z" style="fill: rgb(255, 114, 94); transform-origin: 415.619px 189.114px;" id="el1auves0979c" class="animable"></path><path d="M416.34,234.09l5.91-20.67q1.44-5.05,2.89-10.1A65.17,65.17,0,0,0,427.3,194a20,20,0,0,0-.64-9.17,17.63,17.63,0,0,0-4.58-6.93,50.81,50.81,0,0,0-6.76-5.2l-8.81-6L386.85,153.3c-2-1.37-3.87,1.88-1.89,3.23L401.75,168l8.19,5.58c2.49,1.7,5.07,3.32,7.44,5.19a18.31,18.31,0,0,1,5,5.63,14.44,14.44,0,0,1,1.31,8.07,46.49,46.49,0,0,1-1.93,8.93L419.05,211l-6.32,22.11c-.67,2.33,2.95,3.32,3.61,1Z" style="fill: rgb(255, 114, 94); transform-origin: 405.84px 194.201px;" id="eliz7j2rehq5" class="animable"></path><path d="M443.31,191.45c-4.4,1.81-9,3.72-13.77,4.16s-8.85-1-12.79-3.64c-4.15-2.79-8.12-5.89-12.15-8.85L392,173.87l-14.43-10.58A1.88,1.88,0,0,0,375,164a1.92,1.92,0,0,0,.67,2.57l26.25,19.25c4.19,3.07,8.32,6.26,12.61,9.19,4.05,2.77,8.48,4.58,13.46,4.48,5.71-.12,11.13-2.24,16.33-4.38a1.94,1.94,0,0,0,1.31-2.31,1.9,1.9,0,0,0-2.3-1.31Z" style="fill: rgb(255, 114, 94); transform-origin: 410.221px 181.268px;" id="elwm9h4velewq" class="animable"></path><path d="M440.59,203.33c-5.34,2-10.86,4.08-16.58,4.52s-10.64-1.25-15.55-4a287.7,287.7,0,0,1-27-17.11c-4.61-3.28-9.13-6.67-13.6-10.13a1.9,1.9,0,0,0-2.57.67,1.93,1.93,0,0,0,.68,2.57c8.45,6.53,17.07,12.87,26.09,18.59,4.63,2.93,9.38,5.73,14.16,8.43,5,2.81,10.19,4.88,16,4.8,6.73-.09,13.18-2.4,19.4-4.73,2.24-.84,1.27-4.46-1-3.62Z" style="fill: rgb(255, 114, 94); transform-origin: 403.971px 194.016px;" id="elcj10xarnyza" class="animable"></path><path d="M436.86,213.87c-3.66,1.76-7.39,3.47-11.22,4.86a29.93,29.93,0,0,1-10.37,2,22.55,22.55,0,0,1-8.68-2.07,72.77,72.77,0,0,1-13.81-7.26c-6.44-4.53-13-8.9-19.53-13.32-7.4-5-14.77-10.08-21.86-15.54a1.87,1.87,0,0,0-2.56.67,1.91,1.91,0,0,0,.67,2.56c12.93,10,26.78,18.66,40.15,28a81.82,81.82,0,0,0,14.63,7.95,30.55,30.55,0,0,0,8.45,2.6A29.84,29.84,0,0,0,425,222.9a100.63,100.63,0,0,0,13.76-5.79c2.18-1.05.28-4.28-1.89-3.24Z" style="fill: rgb(255, 114, 94); transform-origin: 394.156px 203.367px;" id="el6gh092653kj" class="animable"></path><path d="M430.81,223.57c-3.45,2-6.93,4-10.48,5.83-2.53,1.3-5.17,2.61-8,2.87a18.21,18.21,0,0,1-9.58-1.79c-3.11-1.53-6.33-2.83-9.46-4.33s-6.5-3.25-9.67-5c-6.75-3.74-13.29-7.83-19.74-12.06-6.88-4.52-13.64-9.21-20.38-13.92-2-1.39-3.86,1.86-1.89,3.24,12.59,8.8,25.25,17.58,38.63,25.15,3.31,1.87,6.66,3.66,10.08,5.33,3.26,1.59,6.66,2.92,9.91,4.54a24.22,24.22,0,0,0,10.18,2.67,21.12,21.12,0,0,0,9.65-2.35c4.35-2,8.54-4.49,12.68-6.93,2.08-1.22.2-4.46-1.89-3.23Z" style="fill: rgb(255, 114, 94); transform-origin: 387.208px 215.466px;" id="ely629v32z4f" class="animable"></path><path d="M320.12,159.71s-4.78-18.82-2.74-30.74a196,196,0,0,1,6.12-24.35h-8.36a211.84,211.84,0,0,0-4.62,25.78c-1.31,12.62,2.67,33.42,2.67,33.42Z" style="fill: rgb(69, 90, 100); transform-origin: 316.878px 134.22px;" id="elhi3dr50abkr" class="animable"></path><path d="M322.45,105H339.1a2.7,2.7,0,0,0,2.7-2.7h0a2.7,2.7,0,0,0-2.7-2.7H322.45a2.7,2.7,0,0,0-2.7,2.7h0A2.7,2.7,0,0,0,322.45,105Z" style="fill: rgb(38, 50, 56); transform-origin: 330.775px 102.3px;" id="el1tm6tck0lvrj" class="animable"></path><path d="M323.89,99.57s-4.92-1.46-7,.57-2.75,6.62-4.12,9a33.71,33.71,0,0,1-1.84,2.95l7.4-.33s2.82-3.57,3.54-6.17S323.89,99.57,323.89,99.57Z" style="fill: rgb(69, 90, 100); transform-origin: 317.41px 105.576px;" id="elswvqfm76ox" class="animable"></path><path d="M323.89,99.57a4.34,4.34,0,0,1-.27,1l-.86,2.65c-.18.57-.37,1.19-.56,1.88a10.93,10.93,0,0,1-.78,2.19,27.14,27.14,0,0,1-2.9,4.64l-.07.09h-.11l-7.32.34h-.09l-.52,0,.3-.44a35.72,35.72,0,0,0,2.14-3.53c.56-1.19.94-2.45,1.36-3.62a19.75,19.75,0,0,1,1.4-3.26,4.61,4.61,0,0,1,2.24-2.19,6.56,6.56,0,0,1,2.55-.39,11.7,11.7,0,0,1,1.92.21,5.69,5.69,0,0,1,1.57.44s-.57-.1-1.6-.24a14.18,14.18,0,0,0-1.89-.12,6.57,6.57,0,0,0-2.41.44,4.28,4.28,0,0,0-2,2.06,20.64,20.64,0,0,0-1.32,3.21c-.41,1.17-.77,2.42-1.35,3.68a35.59,35.59,0,0,1-2.18,3.63l-.22-.42H311l7.32-.3-.18.09a27.67,27.67,0,0,0,2.92-4.52,10.55,10.55,0,0,0,.8-2.11c.21-.69.43-1.31.62-1.88.4-1.12.75-2,1-2.6A5.48,5.48,0,0,1,323.89,99.57Z" style="fill: rgb(38, 50, 56); transform-origin: 317.15px 105.641px;" id="elrcndaigakaa" class="animable"></path><path d="M369.56,225.26a72.78,72.78,0,0,1,2.7-12.66c.64-1.91,1.32-3.8,2.08-5.66.38-.95.8-1.88,1.24-2.8.2-.41.39-.81.6-1.21l.31-.6.33-.59-.23.29c.22-.08-.43.22-.14.1.11,0,.21-.14.32-.19.3-.16.61-.32.92-.46.72-.33,1.53-.64,2.47-1,2.12-.81,4.28-1.55,6.43-2.27l3.91-1.28c2.29-.73,1.31-4.35-1-3.61-3.43,1.09-6.86,2.23-10.23,3.5a21.34,21.34,0,0,0-4.85,2.17c-1.31.93-1.91,2.85-2.55,4.25-.89,2-1.68,4-2.41,6a77.87,77.87,0,0,0-3.52,15,1.94,1.94,0,0,0,1.31,2.31,1.9,1.9,0,0,0,2.31-1.31Z" style="fill: rgb(255, 114, 94); transform-origin: 378.844px 209.917px;" id="el1l7j10327oz" class="animable"></path><path d="M325.34,166.68l-7.67,4.43A4.14,4.14,0,0,1,312,169.6h0a4.14,4.14,0,0,1,1.51-5.65l7.68-4.43a4.13,4.13,0,0,1,5.64,1.51h0A4.13,4.13,0,0,1,325.34,166.68Z" style="fill: rgb(224, 224, 224); transform-origin: 319.419px 165.32px;" id="el05d4sqn3z3ty" class="animable"></path><path d="M447.24,180.11a9.77,9.77,0,0,0-2-3.52c-.63-.64-1.31-1.22-2-1.8-5.58-4.75-11.48-9.16-17.32-13.6s-11.71-9-17.73-13.31a10.74,10.74,0,0,0-8.57-1.56,90.85,90.85,0,0,0-11.74,3.59c-3.22,1.26-6.51,2.74-8.82,5.42a39.34,39.34,0,0,0-5.21,8.25,83.55,83.55,0,0,0-3.86,9,23.76,23.76,0,0,0-.91,2.86c-6.3,2-12.64,4-18.88,6.14-4.88,1.71-8.35,6.09-9.93,10.92a21,21,0,0,0,1.56,16.27,20.17,20.17,0,0,0,5.09,6.09c1.79,1.43,3.77,2.66,5.69,3.93,4.39,2.89,8.86,5.68,13.44,8.26a99.94,99.94,0,0,0,14.25,6.78c4.63,1.74,9.26,3.73,14.08,4.92,9.06,2.24,18.37-.31,26.54-4.35a56.87,56.87,0,0,0,12.45-8.15,24,24,0,0,0,5.86-8.27,158.37,158.37,0,0,0,8.3-23A24,24,0,0,0,447.24,180.11Zm-4.74,18.67c-1.27,3.94-2.62,7.86-4.12,11.73a53.32,53.32,0,0,1-4.53,9.69c-.15.24-.31.47-.47.7l-.09.12,0,0a5.58,5.58,0,0,1-.39.46,20.63,20.63,0,0,1-1.87,1.87,40.5,40.5,0,0,1-5,3.82c-7.49,4.94-16.5,9-25.58,8.68a21.49,21.49,0,0,1-4.92-.71,56.22,56.22,0,0,1-5.83-1.82,151.64,151.64,0,0,1-14.13-5.55,188.42,188.42,0,0,1-25-14.93,16.88,16.88,0,0,1-3.8-24.51,11.35,11.35,0,0,1,5.66-3.61l5.92-1.92,11.16-3.63c.63-.21.81-.45,1.44-.65a2.69,2.69,0,0,0,1.77-2v0c.07-.26.13-.52.2-.77.28-1,.62-1.91,1-2.85a75.5,75.5,0,0,1,3.36-7.66,39.77,39.77,0,0,1,4.42-7.17c1.87-2.22,4.37-3.44,7.17-4.55a92.28,92.28,0,0,1,11.86-3.64,7.55,7.55,0,0,1,6.39,1.69l3.41,2.54q4.47,3.33,8.91,6.69c6.11,4.61,12,9.09,18,13.85,1.75,1.42,3.56,2.81,5.17,4.4.11.1.21.2.31.31l.35.54a7.82,7.82,0,0,1,.54,1.19,20.09,20.09,0,0,1,1.21,7.29C444.83,192,443.58,195.4,442.5,198.78Z" style="fill: rgb(255, 114, 94); transform-origin: 393.938px 192.801px;" id="el01wz0ay5ntmq" class="animable"></path><path d="M447.24,180.11a9.77,9.77,0,0,0-2-3.52c-.63-.64-1.31-1.22-2-1.8-5.58-4.75-11.48-9.16-17.32-13.6s-11.71-9-17.73-13.31a10.74,10.74,0,0,0-8.57-1.56,90.85,90.85,0,0,0-11.74,3.59c-3.22,1.26-6.51,2.74-8.82,5.42a39.34,39.34,0,0,0-5.21,8.25,83.55,83.55,0,0,0-3.86,9,23.76,23.76,0,0,0-.91,2.86c-6.3,2-12.64,4-18.88,6.14-4.88,1.71-8.35,6.09-9.93,10.92a21,21,0,0,0,1.56,16.27,20.17,20.17,0,0,0,5.09,6.09c1.79,1.43,3.77,2.66,5.69,3.93,4.39,2.89,8.86,5.68,13.44,8.26a99.94,99.94,0,0,0,14.25,6.78c4.63,1.74,9.26,3.73,14.08,4.92,9.06,2.24,18.37-.31,26.54-4.35a56.87,56.87,0,0,0,12.45-8.15,24,24,0,0,0,5.86-8.27,158.37,158.37,0,0,0,8.3-23A24,24,0,0,0,447.24,180.11Zm-4.74,18.67c-1.27,3.94-2.62,7.86-4.12,11.73a53.32,53.32,0,0,1-4.53,9.69c-.15.24-.31.47-.47.7l-.09.12,0,0a5.58,5.58,0,0,1-.39.46,20.63,20.63,0,0,1-1.87,1.87,40.5,40.5,0,0,1-5,3.82c-7.49,4.94-16.5,9-25.58,8.68a21.49,21.49,0,0,1-4.92-.71,56.22,56.22,0,0,1-5.83-1.82,151.64,151.64,0,0,1-14.13-5.55,188.42,188.42,0,0,1-25-14.93,16.88,16.88,0,0,1-3.8-24.51,11.35,11.35,0,0,1,5.66-3.61l5.92-1.92,11.16-3.63c.63-.21.81-.45,1.44-.65a2.69,2.69,0,0,0,1.77-2v0c.07-.26.13-.52.2-.77.28-1,.62-1.91,1-2.85a75.5,75.5,0,0,1,3.36-7.66,39.77,39.77,0,0,1,4.42-7.17c1.87-2.22,4.37-3.44,7.17-4.55a92.28,92.28,0,0,1,11.86-3.64,7.55,7.55,0,0,1,6.39,1.69l3.41,2.54q4.47,3.33,8.91,6.69c6.11,4.61,12,9.09,18,13.85,1.75,1.42,3.56,2.81,5.17,4.4.11.1.21.2.31.31l.35.54a7.82,7.82,0,0,1,.54,1.19,20.09,20.09,0,0,1,1.21,7.29C444.83,192,443.58,195.4,442.5,198.78Z" style="fill: none; transform-origin: 393.938px 192.801px;" id="el2t18we2gb6k" class="animable"></path><path d="M442.5,198.78s.11-.43.36-1.24.64-2,1.07-3.62a20.61,20.61,0,0,0,.45-9.82A15.33,15.33,0,0,0,443,180h0l-.35-.54,0,0a67.58,67.58,0,0,0-6.21-5.23l-7.41-5.69-8.29-6.37c-2.9-2.23-6-4.5-9.17-6.89l-4.89-3.64a7.36,7.36,0,0,0-5.74-1.59,88.35,88.35,0,0,0-12.61,3.89,17.79,17.79,0,0,0-5.82,3.48,25.92,25.92,0,0,0-4,5.74,67.82,67.82,0,0,0-5.66,13.43v-.1a1.93,1.93,0,0,1-.33,1,3.24,3.24,0,0,1-.65.73,2.91,2.91,0,0,1-.85.51,4.12,4.12,0,0,0-.8.35,9.39,9.39,0,0,1-1.75.67l-1.74.57-7.06,2.3L352.52,185a11,11,0,0,0-6.07,4.14,16.77,16.77,0,0,0-2.69,13.76,16.71,16.71,0,0,0,5.56,8.8,32.47,32.47,0,0,0,2.84,2,183.86,183.86,0,0,0,23.16,13.74,120.81,120.81,0,0,0,11.62,4.7c3.83,1.37,7.54,2.82,11.3,3.35a29,29,0,0,0,5.58.09,35.36,35.36,0,0,0,5.32-.87,46.68,46.68,0,0,0,9.52-3.51,68,68,0,0,0,8-4.65c1.21-.82,2.35-1.67,3.41-2.55a16.11,16.11,0,0,0,1.48-1.37c.47-.47.95-.92,1.38-1.39a30.1,30.1,0,0,0,3.5-6.22c.88-2,1.64-3.91,2.24-5.62l2.82-7.88.74-2.05c.18-.46.28-.69.28-.69s-.07.24-.22.7-.4,1.17-.7,2.07l-2.73,7.92c-.59,1.72-1.34,3.6-2.2,5.64a30,30,0,0,1-3.51,6.32c-.43.48-.92.93-1.39,1.42a18,18,0,0,1-1.49,1.39,41.86,41.86,0,0,1-3.42,2.58,68.43,68.43,0,0,1-8,4.71,47.2,47.2,0,0,1-9.59,3.57,36.3,36.3,0,0,1-5.39.9,29.92,29.92,0,0,1-5.67-.08c-3.84-.54-7.57-2-11.39-3.35a121.27,121.27,0,0,1-11.68-4.7,182.53,182.53,0,0,1-23.24-13.74c-1-.67-2-1.29-2.88-2.07a17.57,17.57,0,0,1-2.52-2.58,17.1,17.1,0,0,1-3.22-6.5A17.29,17.29,0,0,1,346,188.79a10.25,10.25,0,0,1,2.81-2.72,14.86,14.86,0,0,1,3.52-1.6l7.18-2.33,7.06-2.29,1.74-.57a9.65,9.65,0,0,0,1.67-.62,4.74,4.74,0,0,1,.86-.39,2.29,2.29,0,0,0,.7-.42,2.65,2.65,0,0,0,.54-.62,1.8,1.8,0,0,0,.27-.66v-.1a67.35,67.35,0,0,1,5.73-13.55,26,26,0,0,1,4.09-5.85,18.33,18.33,0,0,1,6-3.57,87.51,87.51,0,0,1,12.71-3.89,6.73,6.73,0,0,1,3.25.2,9.67,9.67,0,0,1,2.83,1.48c1.66,1.24,3.29,2.45,4.88,3.65,3.18,2.41,6.26,4.68,9.16,6.92l8.27,6.4,7.38,5.73a64.31,64.31,0,0,1,6.2,5.28h0v0l.35.54h0a15.41,15.41,0,0,1,1.38,4.2,22.57,22.57,0,0,1,.36,3.87,21.73,21.73,0,0,1-.91,6C443.13,197.14,442.5,198.78,442.5,198.78Z" style="fill: rgb(38, 50, 56); transform-origin: 393.855px 192.798px;" id="el46u4hrs7tap" class="animable"></path><path d="M447.24,180.11a15.33,15.33,0,0,1,.91,3,23.56,23.56,0,0,1,.13,9,57.19,57.19,0,0,1-1.66,6.34c-.69,2.29-1.47,4.77-2.39,7.41s-2,5.44-3.18,8.36a43.24,43.24,0,0,1-4.64,8.92,22.31,22.31,0,0,1-3.75,3.91,49.08,49.08,0,0,1-4.54,3.38,66.6,66.6,0,0,1-10.56,5.67,44.87,44.87,0,0,1-12.36,3.4,32.24,32.24,0,0,1-6.74.09,34.13,34.13,0,0,1-6.77-1.41c-4.46-1.38-8.84-3.23-13.4-4.95a109.07,109.07,0,0,1-13.37-6.61c-4.39-2.51-8.75-5.26-13.11-8.14a43.47,43.47,0,0,1-6.39-4.69,20.08,20.08,0,0,1-4.6-6.6,21.33,21.33,0,0,1-1.29-13,18.76,18.76,0,0,1,6.66-10.81,16.14,16.14,0,0,1,5.66-2.7l5.84-1.9L369,175.17l-.16.18A69.91,69.91,0,0,1,373,164.8a44.62,44.62,0,0,1,5.62-9.3c2.3-2.83,5.6-4.37,8.7-5.61a82.89,82.89,0,0,1,9.37-3l2.3-.59a13.2,13.2,0,0,1,2.33-.4,11.14,11.14,0,0,1,4.57.61,9.82,9.82,0,0,1,2,1c.64.41,1.19.87,1.77,1.3l3.4,2.56,12.27,9.25c7.43,5.63,13.29,10.16,17.14,13.47,1,.81,1.78,1.6,2.51,2.24a6.8,6.8,0,0,1,1.47,2,10.61,10.61,0,0,1,.76,1.86s-.07-.15-.2-.47a14,14,0,0,0-.64-1.35c-.53-1.23-2.09-2.47-4-4.12-3.88-3.26-9.76-7.75-17.21-13.35-3.73-2.79-7.85-5.86-12.3-9.2l-3.41-2.54c-.58-.43-1.15-.9-1.75-1.29a9.86,9.86,0,0,0-2-.95,10.53,10.53,0,0,0-4.41-.57,27.09,27.09,0,0,0-4.55,1,80.73,80.73,0,0,0-9.31,3c-3.09,1.24-6.3,2.76-8.51,5.5a44,44,0,0,0-5.55,9.21,70,70,0,0,0-4.1,10.45l0,.14-.13,0-11.31,3.69-5.83,1.9a15.64,15.64,0,0,0-5.52,2.63A18.25,18.25,0,0,0,340,194.37,20.83,20.83,0,0,0,341.3,207a19.6,19.6,0,0,0,4.48,6.44,43.54,43.54,0,0,0,6.31,4.63c4.36,2.87,8.7,5.62,13.09,8.13a109.35,109.35,0,0,0,13.29,6.59c4.54,1.72,8.94,3.58,13.36,5a33.54,33.54,0,0,0,6.68,1.4,31.9,31.9,0,0,0,6.63-.07,44.76,44.76,0,0,0,12.26-3.35,66.59,66.59,0,0,0,10.5-5.6,48.37,48.37,0,0,0,4.51-3.35,21.62,21.62,0,0,0,3.71-3.83,42.65,42.65,0,0,0,4.62-8.82c1.24-2.92,2.29-5.71,3.22-8.34s1.72-5.1,2.42-7.38a55.83,55.83,0,0,0,1.7-6.3,24.15,24.15,0,0,0,0-9c-.2-1-.42-1.77-.57-2.27S447.24,180.11,447.24,180.11Z" style="fill: rgb(38, 50, 56); transform-origin: 393.851px 192.796px;" id="eltqjx8bndirg" class="animable"></path><path d="M440.63,176.27c-5.25.53-8.31,1.55-13.28,3.32a22.52,22.52,0,0,0-11.83,8.9c-2.7,4.31-3.75,9.51-5,14.36-1.36,5.08-2.69,10.18-3.91,15.3-1.36,5.7-2.61,11.45-3.51,17.25a1.91,1.91,0,0,0,1.29,2.28,1.87,1.87,0,0,0,2.28-1.29,292.54,292.54,0,0,1,6.62-29.55q.93-3.53,1.88-7.05a49,49,0,0,1,2.15-6.68,17.84,17.84,0,0,1,9.84-9.48,52.52,52.52,0,0,1,7.48-2.29,71.16,71.16,0,0,1,9.2-1.89Z" style="fill: rgb(255, 114, 94); transform-origin: 423.442px 207.007px;" id="elph4nhnjvwsp" class="animable"></path><path d="M402.86,236.54a4.28,4.28,0,0,1,.08-.8c.06-.52.17-1.29.33-2.27.31-2,.81-4.8,1.53-8.29s1.66-7.63,2.84-12.18,2.44-9.58,3.79-14.84a42.52,42.52,0,0,1,2.62-7.52,19.67,19.67,0,0,1,4.35-6,23.11,23.11,0,0,1,5.54-3.8,41.14,41.14,0,0,1,5.44-2.14,45.57,45.57,0,0,1,8.17-2.11c1-.14,1.76-.22,2.28-.27a4,4,0,0,1,.8,0,5.17,5.17,0,0,1-.79.14c-.51.08-1.28.19-2.26.36A49.72,49.72,0,0,0,429.5,179a42.86,42.86,0,0,0-5.37,2.17,23,23,0,0,0-5.4,3.77,19.36,19.36,0,0,0-4.22,5.89,42.61,42.61,0,0,0-2.58,7.44l-3.83,14.81c-1.2,4.55-2.19,8.67-2.94,12.14s-1.32,6.3-1.69,8.26c-.18.93-.32,1.68-.43,2.25A4.47,4.47,0,0,1,402.86,236.54Z" style="fill: rgb(38, 50, 56); transform-origin: 421.745px 206.42px;" id="el6c3zp0pcfn" class="animable"></path><path d="M443.8,179.45a4.49,4.49,0,0,1-.75.14c-.5.08-1.24.21-2.17.41-1.88.38-4.57,1.06-7.89,1.94s-7.33,2-10.78,4.93a16.94,16.94,0,0,0-4.3,5.48,40.11,40.11,0,0,0-2.43,7.18c-2.73,10.11-5.15,19.28-6.62,26-.75,3.34-1.28,6.07-1.64,8-.17.91-.31,1.63-.41,2.17a4.17,4.17,0,0,1-.18.76,4.35,4.35,0,0,1,.07-.77c.07-.51.17-1.24.32-2.19.29-1.9.78-4.64,1.48-8,1.38-6.73,3.74-15.93,6.47-26a39.65,39.65,0,0,1,2.49-7.27,17.39,17.39,0,0,1,4.44-5.62,20.16,20.16,0,0,1,5.61-3.26,47,47,0,0,1,5.39-1.66c3.33-.83,6-1.46,7.94-1.78,1-.17,1.69-.27,2.19-.31A3.44,3.44,0,0,1,443.8,179.45Z" style="fill: rgb(38, 50, 56); transform-origin: 425.215px 207.955px;" id="eliopgxruq7f" class="animable"></path></g><defs>     <filter id="active" height="200%">         <feMorphology in="SourceAlpha" result="DILATED" operator="dilate" radius="2"></feMorphology>                <feFlood flood-color="#32DFEC" flood-opacity="1" result="PINK"></feFlood>        <feComposite in="PINK" in2="DILATED" operator="in" result="OUTLINE"></feComposite>        <feMerge>            <feMergeNode in="OUTLINE"></feMergeNode>            <feMergeNode in="SourceGraphic"></feMergeNode>        </feMerge>    </filter>    <filter id="hover" height="200%">        <feMorphology in="SourceAlpha" result="DILATED" operator="dilate" radius="2"></feMorphology>                <feFlood flood-color="#ff0000" flood-opacity="0.5" result="PINK"></feFlood>        <feComposite in="PINK" in2="DILATED" operator="in" result="OUTLINE"></feComposite>        <feMerge>            <feMergeNode in="OUTLINE"></feMergeNode>            <feMergeNode in="SourceGraphic"></feMergeNode>        </feMerge>            <feColorMatrix type="matrix" values="0   0   0   0   0                0   1   0   0   0                0   0   0   0   0                0   0   0   1   0 "></feColorMatrix>    </filter></defs></svg>